<?xml version="1.0" encoding="UTF-8"?>
<svg id="Layer_2" xmlns="http://www.w3.org/2000/svg" viewBox="0 0 632.04 776.95">
  <defs>
    <style>
      .cls-1 {
        fill: #fff;
      }
    </style>
  </defs>
  <g id="_x2014_ÎÓÈ_x5F_1">
    <path class="cls-1" d="M630.92,180.28c-2.62-6.87-9.21-11.32-16.79-11.32h-121.43l31.17-59.13h0l53.15-100.62-17.45-9.21-89.37,169.19h-72.1s-380.2-.22-380.2-.22c-7.58,0-14.17,4.44-16.79,11.31-2.53,6.62-.7,13.99,4.65,18.77l278.03,248.22c1.91,1.71,3.01,4.16,3.01,6.72v244.62c0,3.71-2.23,7-5.68,8.37l-95.42,37.96c-7.45,2.96-11.78,10.72-10.3,18.44.75,3.92,2.89,7.43,6.03,9.9,3,2.36,6.81,3.66,10.72,3.66h247.69c3.91,0,7.72-1.3,10.72-3.66,3.14-2.47,5.28-5.99,6.03-9.9,1.48-7.72-2.85-15.48-10.3-18.44l-95.42-37.96c-3.45-1.37-5.68-4.66-5.68-8.37v-244.6c0-2.56,1.1-5.01,3.01-6.72l278.05-248.24c5.35-4.78,7.18-12.14,4.65-18.77ZM23.8,188.7l421.39.24v-.03h14.69l-24.93,47.29H77.02l-53.21-47.51ZM335.08,432.57c-6.1,5.45-9.6,13.26-9.6,21.44v244.6c0,11.84,7.11,22.33,18.12,26.7l80.18,31.9h-215.54l80.18-31.9c11-4.38,18.12-14.86,18.12-26.7v-244.62c0-8.18-3.5-15.99-9.6-21.44L99.11,255.94h433.82l-197.84,176.63ZM555.03,236.21h-97.77l24.93-47.29h82.56v-.22h43.5l-53.22,47.51Z"/>
  </g>
</svg>