<?xml version="1.0" encoding="UTF-8"?>
<svg id="Layer_2" xmlns="http://www.w3.org/2000/svg" viewBox="0 0 302.97 851.5">
  <defs>
    <style>
      .cls-1 {
        fill: #fff;
      }
    </style>
  </defs>
  <g id="_x2014_ÎÓÈ_x5F_1">
    <path class="cls-1" d="M252.02,227.68l22.22-97.38v-.06s.01,0,.01,0l28.72-125.85-19.23-4.39-28.71,125.85-23.42,101.63c-60.24-.65-147.25-1.01-199.88.2l-5.88.15H0v31.26l.02,9.86h.25l13.64,534.31v.22s2.66,38.31,2.66,38.31c.35,5.46,4.87,9.71,10.36,9.71h231.6c5.49,0,10.01-4.26,10.36-9.72l2.63-38.1v-.21s13.66-534.53,13.66-534.53h.27v-41.13h-26.11l-7.3-.15ZM19.73,247.55h6.23l6.23-.15c25.06-.58,57.97-.8,92.08-.8s72.27.24,102.8.55l-12.82,55.63H20.87l-1.12-43.95v-.55s-.01-10.73-.01-10.73ZM251.81,802.55l-2.02,29.23H35.65l-2.03-29.23-12.25-480.03h242.69l-12.25,480.03ZM265.7,258.25l-1.14,44.53h-30.08l12.77-55.4c4.13.05,8.07.11,11.81.16h6.65v10.7Z"/>
  </g>
</svg>