<?xml version="1.0" encoding="UTF-8"?>
<svg id="Layer_2" xmlns="http://www.w3.org/2000/svg" viewBox="0 0 505.45 787.14">
  <defs>
    <style>
      .cls-1 {
        fill: #fff;
      }
    </style>
  </defs>
  <g id="_x2014_ÎÓÈ_x5F_1">
    <path class="cls-1" d="M480.62,232.03h-27L505.45,11.9,454.93,0l-54.64,232.03H14.51c-3.91,0-7.57,1.55-10.31,4.38C1.41,239.28-.12,243.26,0,247.34l1.31,43.37h.24l24.97,482.71c.4,7.7,6.74,13.72,14.45,13.72h413.19c7.7,0,14.05-6.03,14.45-13.72l24.97-482.71h.24l1.31-43.37c.12-4.07-1.4-8.06-4.19-10.93-2.74-2.82-6.4-4.38-10.31-4.38ZM463.74,251.76h11.51l-.82,27.18-4.61,89.21h-48.25l27.41-116.39h14.77ZM388.51,368.15l27.41-116.39h12.79l-27.41,116.39h-12.79ZM469.61,23.73l12.11,2.85-48.38,205.45h-12.79l49.05-208.31ZM270.09,251.76h125.56l-27.41,116.39H25.31l-4.62-89.24-.82-27.15h250.21ZM449.16,767.41H45.97l-19.63-379.53h442.46l-19.63,379.53Z"/>
  </g>
</svg>