<?xml version="1.0" encoding="UTF-8"?>
<svg id="Layer_2" xmlns="http://www.w3.org/2000/svg" viewBox="0 0 362.89 813.2">
  <defs>
    <style>
      .cls-1 {
        fill: #fff;
      }
    </style>
  </defs>
  <g id="_x2014_ÎÓÈ_x5F_1">
    <path class="cls-1" d="M234.68,410.45c12.35-12.5,24.97-18.61,26.11-19.15,2.25-.96,16.52-7.39,34.27-23.54,10.92-9.94,21.06-21.61,30.13-34.71,11.25-16.25,20.9-34.75,28.66-54.99,8.01-20.89,10.72-48.39,8.05-81.74-2.09-26.06-7.44-55.89-15.91-88.66-14.35-55.5-32.46-99.71-33.22-101.56l-2.52-6.11H52.64l-2.52,6.11c-.76,1.85-18.87,46.06-33.22,101.56C8.43,140.43,3.08,170.26.99,196.33c-2.67,33.35.04,60.85,8.05,81.74,7.76,20.24,17.4,38.73,28.66,54.99,9.07,13.09,19.21,24.77,30.13,34.71,17.75,16.15,32.03,22.58,34.27,23.54,1.14.54,13.75,6.65,26.11,19.15,16.76,16.96,25.3,37.31,25.39,60.48v236.24c-3.08,9.59-16.26,35.67-69.19,44.16-40.69,6.53-64.3,16.16-72.19,29.44-2.99,5.04-3.02,9.39-2.6,11.99.19,2.55,1.15,6.86,5.06,11.03,5.84,6.24,15.87,9.4,29.81,9.4h273.92c13.94,0,23.98-3.16,29.81-9.4,3.9-4.17,4.87-8.49,5.06-11.03.42-2.6.39-6.95-2.6-11.99-7.88-13.28-31.5-22.91-72.19-29.44-52.93-8.49-66.11-34.57-69.19-44.16v-236.21c.08-23.19,8.62-43.55,25.39-60.51ZM65.95,19.73h231c3.82,9.85,11.66,30.81,19.78,57.14H46.16c8.13-26.33,15.96-47.3,19.78-57.14ZM189.93,711.25c1.78,6.41,6.73,18.99,19.9,31.18,15.5,14.35,37.55,23.9,65.54,28.39,21.97,3.52,38.46,7.97,49.02,13.22,5.68,2.82,8.23,5.26,9.11,6.47v.09c-1.07.82-4.79,2.88-15.08,2.88H44.49c-10.3,0-14.02-2.06-15.09-2.88v-.09c.88-1.21,3.43-3.64,9.11-6.47,10.56-5.25,27.05-9.69,49.02-13.22,27.99-4.49,50.04-14.04,65.55-28.39,13.17-12.19,18.12-24.76,19.89-31.18l.36-1.29v-239.05c-.1-28.42-11.04-54.32-31.66-74.9-15.42-15.39-30.88-22.44-31.54-22.73l-.32-.14c-.56-.24-13.3-5.76-29.51-20.71-15.25-14.07-36.79-39.61-52.83-81.42-12.65-32.99-9.72-87.68,8.48-158.16,1.43-5.52,2.9-10.95,4.39-16.23h282.23c1.49,5.29,2.96,10.71,4.39,16.23,18.2,70.48,21.13,125.17,8.48,158.16-16.04,41.81-37.58,67.36-52.83,81.42-16.19,14.93-28.91,20.46-29.51,20.71l-.32.14c-.65.29-16.12,7.34-31.54,22.73-20.62,20.58-31.57,46.48-31.66,74.9v239.05l.36,1.29Z"/>
  </g>
</svg>